# xmcd
#
# Track frame offsets:
#	150
#	17083
#	30573
#	46415
#	63924
#	81401
#	100010
#	116181
#	132046
#	149882
#	167958
#	184230
#	202339
#	220947
#	238181
#	258537
#	276468
#	292377
#	311482
#	330201
#
# Disc length: 4642 seconds
#
# Revision: 0
# Processed by: cddbd v1.5.2PL0 Copyright (c) Steve Scherf et al.
# Submitted via: audiograbber 1.83.01
#
DISCID=44122014
DTITLE=Various Artist - ERG NCT 155
DYEAR=2007
DGENRE=Country
TTITLE0=Carolyn Dawn Johnson - Into You
TTITLE1=Terri Clark - Dirty Girl
TTITLE2=Bucky Covington - Different World, A
TTITLE3=Wreckers, The - Tennessee
TTITLE4=Halfway To Hazard - Daisy
TTITLE5=Bon Jovi - (You Want To Make) A Memory [Country Version]
TTITLE6=Clay Walker - Fall
TTITLE7=Jimmy Rankin - Got To Leave Louisiana
TTITLE8=Brad Paisley - Ticks
TTITLE9=Kenny Rogers ft. Don Henley - Calling Me
TTITLE10=Trent Tomlinson - Just Might Have Her Radio On
TTITLE11=Doc Walker - Driving With The Brakes On
TTITLE12=George Strait - Wrapped
TTITLE13=Jason Michael Carroll - Livin' Our Love Song
TTITLE14=Jim Cuddy ft. Kathleen Edwards - Married Again
TTITLE15=Vince Gill ft. Sheryl Crow - What You Give Away
TTITLE16=Jessie Farrell - Let's Talk About Love
TTITLE17=Randy Rogers Band - One More Goodbye
TTITLE18=Shane Yellowbird - Pickup Truck [Radio Edit]
TTITLE19=Jamie O'Neal - God Don't Make Mistakes
EXTD=
EXTT0=
EXTT1=
EXTT2=
EXTT3=
EXTT4=
EXTT5=
EXTT6=
EXTT7=
EXTT8=
EXTT9=
EXTT10=
EXTT11=
EXTT12=
EXTT13=
EXTT14=
EXTT15=
EXTT16=
EXTT17=
EXTT18=
EXTT19=
PLAYORDER=
